<?xml version="1.0" encoding="UTF-8" standalone="no"?>
<!DOCTYPE svg PUBLIC "-//W3C//DTD SVG 1.1//EN" "http://www.w3.org/Graphics/SVG/1.1/DTD/svg11.dtd">
<svg xmlns="http://www.w3.org/2000/svg" version="1.1" viewBox="0.00 0.00 501.00 219.00">
<path stroke="#77ced2" stroke-width="1.60" fill="none" stroke-linecap="butt" vector-effect="non-scaling-stroke" d="
  M 324.85 152.28
  Q 324.73 152.87 323.45 153.35
  Q 322.93 153.54 323.45 153.71
  Q 324.07 153.91 324.97 153.88"
/>
<path fill="#eeeeee" d="
  M 324.85 152.28
  Q 324.73 152.87 323.45 153.35
  Q 322.93 153.54 323.45 153.71
  Q 324.07 153.91 324.97 153.88
  Q 331.50 154.11 338.00 154.76
  Q 355.14 156.49 370.85 160.88
  Q 373.59 161.65 375.34 161.97
  Q 375.92 162.08 375.99 161.49
  Q 380.58 123.32 386.57 94.64
  Q 392.82 64.70 400.04 36.74
  Q 404.61 19.07 409.39 7.42
  Q 410.87 3.79 413.32 0.95
  C 414.56 -0.48 416.50 0.33 416.81 2.15
  Q 417.69 7.45 416.37 10.01
  Q 411.08 20.24 410.15 23.34
  C 406.16 36.56 402.71 50.36 399.69 63.88
  Q 389.94 107.63 382.76 152.75
  Q 381.90 158.18 381.16 164.13
  Q 381.09 164.71 381.51 165.10
  L 382.74 166.25
  A 0.57 0.57 0.0 0 1 382.59 167.19
  Q 381.93 167.47 381.23 167.49
  Q 380.77 167.50 380.71 167.95
  Q 378.89 182.47 378.00 192.35
  Q 377.05 203.00 378.41 216.20
  Q 378.48 216.92 377.76 216.93
  C 373.44 217.03 373.19 202.29 373.24 199.75
  Q 373.55 184.66 375.49 166.77
  A 0.61 0.60 12.0 0 0 375.06 166.12
  Q 368.49 164.07 361.65 162.84
  Q 343.16 159.51 330.30 158.91
  Q 323.36 158.59 316.52 157.63
  C 314.41 157.33 313.53 155.30 315.18 153.74
  Q 317.86 151.20 320.75 149.44
  Q 333.06 141.93 345.71 134.17
  Q 350.17 131.43 355.25 127.63
  C 356.51 126.68 357.60 125.46 358.50 124.16
  A 1.11 1.11 0.0 0 0 357.47 122.42
  C 356.39 122.54 355.13 122.44 354.10 122.74
  Q 346.31 125.01 338.05 125.84
  Q 332.59 126.39 327.73 124.87
  Q 327.25 124.72 326.84 124.99
  Q 305.55 139.18 281.94 152.11
  Q 270.71 158.27 260.34 162.48
  Q 252.76 165.57 245.25 166.48
  Q 243.25 166.72 241.25 165.56
  Q 240.76 165.28 240.51 164.77
  Q 238.95 161.69 239.38 158.37
  Q 241.11 145.07 244.41 127.38
  C 244.70 125.80 244.68 124.14 244.56 122.55
  A 1.10 1.09 -17.4 0 0 242.90 121.69
  Q 239.29 123.85 236.70 126.55
  Q 228.50 135.06 220.51 144.52
  C 218.35 147.09 214.74 149.73 211.33 149.62
  A 1.65 1.64 86.3 0 1 209.77 148.24
  Q 209.09 144.13 209.64 140.08
  Q 210.91 130.82 212.91 120.12
  Q 214.02 114.17 213.92 107.73
  Q 213.89 105.42 211.93 104.43
  Q 211.48 104.21 211.00 104.37
  Q 208.49 105.24 206.62 107.67
  C 203.99 111.12 201.27 114.26 198.91 117.96
  Q 188.52 134.27 180.46 149.15
  Q 176.55 156.35 172.38 163.16
  Q 171.47 164.64 169.43 164.95
  Q 168.91 165.03 168.52 164.67
  Q 166.86 163.15 167.20 160.97
  Q 169.84 144.30 170.88 125.41
  Q 171.08 121.82 174.58 121.38
  Q 175.02 121.33 175.39 121.57
  Q 177.46 122.97 177.03 125.70
  Q 174.80 139.71 172.83 148.98
  Q 171.91 153.32 174.49 149.71
  Q 175.99 147.59 177.18 145.55
  C 185.53 131.15 193.98 116.31 204.20 103.98
  Q 206.27 101.48 209.48 100.27
  C 213.35 98.80 217.07 100.48 217.68 104.75
  Q 218.39 109.78 217.29 117.45
  Q 215.52 129.88 212.80 142.94
  A 1.33 1.31 19.5 0 0 213.50 144.39
  Q 214.87 145.09 216.03 143.83
  Q 222.55 136.73 229.80 128.56
  Q 235.77 121.84 241.37 117.63
  Q 243.14 116.31 245.09 115.75
  Q 245.65 115.59 246.20 115.79
  Q 250.06 117.18 249.51 122.68
  Q 249.06 127.17 248.46 130.43
  Q 246.18 142.94 243.99 154.93
  Q 243.38 158.29 244.11 161.68
  A 0.97 0.97 0.0 0 0 245.13 162.44
  Q 250.99 162.02 256.94 159.54
  Q 267.11 155.30 276.27 150.36
  Q 299.12 138.04 323.49 123.08
  Q 323.95 122.80 323.85 122.27
  Q 323.33 119.59 326.50 118.78
  C 327.79 118.45 328.75 119.45 329.30 120.47
  Q 329.56 120.95 330.04 121.22
  Q 332.50 122.65 335.98 122.36
  C 343.33 121.76 350.70 119.76 357.75 118.70
  C 358.92 118.53 359.93 119.06 361.08 119.23
  A 2.36 2.36 0.0 0 1 363.10 121.70
  Q 362.95 124.38 361.42 126.51
  Q 357.52 131.91 350.35 136.54
  Q 337.71 144.71 324.85 152.28
  Z"
/>
<path fill="#00adb5" d="
  M 41.87 109.09
  Q 49.79 111.70 59.07 113.11
  Q 59.32 113.15 59.07 113.15
  Q 42.55 113.27 26.77 109.37
  C 19.14 107.49 11.63 104.32 6.48 98.12
  Q -0.33 89.94 3.91 78.37
  Q 4.10 77.83 4.34 78.35
  Q 12.13 95.59 29.44 104.04
  Q 32.48 105.52 35.63 106.79
  Q 38.82 108.08 41.87 109.09
  Z"
/>
<path fill="#00adb5" d="
  M 94.15 109.12
  Q 103.81 105.93 111.18 101.53
  Q 125.50 92.99 131.68 78.84
  Q 131.96 78.21 132.20 78.85
  Q 133.94 83.37 133.69 87.78
  C 132.99 100.31 119.91 106.72 109.51 109.28
  Q 93.24 113.29 77.10 113.16
  Q 76.37 113.15 77.09 113.06
  Q 85.67 111.92 94.15 109.12
  Z"
/>
<ellipse fill="#eeeeee" cx="0.00" cy="0.00" transform="translate(425.89,97.70) rotate(105.0)" rx="5.07" ry="3.40"/>
<path fill="#00adb5" d="
  M 56.55 115.83
  Q 42.14 120.17 27.25 120.20
  Q 24.79 120.21 21.33 119.25
  Q 17.80 118.27 15.90 116.92
  Q 11.57 113.86 11.01 107.69
  Q 10.94 107.00 11.53 107.36
  Q 16.53 110.44 22.28 112.02
  C 26.22 113.10 30.33 114.16 34.33 114.62
  Q 45.68 115.93 57.10 115.60
  Q 57.20 115.60 57.10 115.64
  Q 56.83 115.75 56.55 115.83
  Z"
/>
<path fill="#00adb5" d="
  M 110.20 113.00
  Q 116.60 111.65 124.61 107.30
  Q 125.16 107.00 125.07 107.62
  Q 123.95 115.80 117.12 118.43
  Q 111.28 120.68 103.88 120.17
  Q 92.91 119.41 84.91 117.23
  Q 81.21 116.23 77.70 115.55
  Q 77.66 115.54 77.62 115.54
  Q 77.56 115.55 77.58 115.60
  Q 77.60 115.65 77.65 115.65
  Q 87.08 115.69 97.45 115.13
  Q 101.01 114.94 110.20 113.00
  Z"
/>
<path fill="#00adb5" d="
  M 39.30 123.02
  Q 42.97 122.54 46.56 121.60
  L 57.04 118.86
  Q 57.69 118.69 57.11 119.04
  Q 54.51 120.60 51.81 122.12
  Q 42.43 127.43 33.18 129.54
  C 30.62 130.12 26.68 130.03 24.09 128.75
  Q 20.42 126.94 18.93 122.82
  Q 18.72 122.24 19.31 122.44
  Q 24.43 124.18 29.71 123.90
  Q 34.34 123.65 39.30 123.02
  Z"
/>
<path fill="#00adb5" d="
  M 94.86 122.79
  Q 104.16 124.09 113.18 123.33
  C 114.47 123.22 115.54 122.81 116.66 122.19
  Q 117.38 121.79 117.10 122.56
  C 111.35 138.39 87.12 124.00 78.63 118.99
  A 0.07 0.07 0.0 0 1 78.68 118.87
  Q 82.79 119.87 86.74 120.97
  Q 91.74 122.36 94.86 122.79
  Z"
/>
<path fill="#00adb5" d="
  M 50.32 130.39
  C 45.46 134.40 38.29 139.86 32.24 134.44
  Q 30.96 133.29 32.68 133.24
  Q 35.95 133.17 39.62 131.93
  Q 49.83 128.47 58.68 121.39
  Q 58.80 121.30 58.90 121.41
  L 58.90 121.41
  Q 59.02 121.55 58.89 121.67
  C 55.90 124.52 53.50 127.78 50.32 130.39
  Z"
/>
<path fill="#00adb5" d="
  M 92.18 134.94
  Q 86.84 131.84 83.90 128.79
  Q 80.77 125.55 77.51 121.97
  Q 76.43 120.78 77.68 121.79
  Q 85.99 128.48 97.26 132.20
  Q 100.79 133.37 104.09 133.34
  Q 104.85 133.33 104.32 133.87
  Q 99.25 139.05 92.18 134.94
  Z"
/>
<path fill="#eeeeee" d="
  M 415.54 145.60
  A 1.80 1.78 -8.9 0 0 417.30 146.87
  Q 421.12 146.76 424.07 146.14
  Q 435.29 143.76 448.89 138.71
  Q 472.06 130.10 495.12 121.40
  Q 495.42 121.29 495.64 121.53
  L 496.80 122.78
  A 0.78 0.78 0.0 0 1 496.55 124.02
  Q 464.06 138.76 427.95 149.26
  Q 424.06 150.39 419.91 150.85
  C 414.46 151.45 410.14 148.50 410.15 142.82
  Q 410.17 134.58 413.21 125.86
  Q 414.65 121.73 419.09 121.43
  A 1.73 1.72 -79.1 0 1 420.76 123.90
  Q 416.37 133.01 415.25 141.26
  Q 414.94 143.59 415.54 145.60
  Z"
/>
<path fill="#00adb5" d="
  M 50.18 135.96
  Q 55.25 131.78 60.15 125.35
  Q 61.23 123.95 60.46 125.54
  C 58.19 130.28 52.47 142.40 45.37 138.74
  Q 44.86 138.48 45.41 138.34
  Q 48.10 137.68 50.18 135.96
  Z"
/>
<path fill="#00adb5" d="
  M 85.82 135.98
  Q 87.89 137.63 90.74 138.42
  Q 91.43 138.61 90.73 138.78
  Q 89.35 139.12 88.04 139.40
  C 82.85 140.49 77.39 129.30 75.57 125.49
  Q 74.76 123.80 75.84 125.34
  Q 80.12 131.44 85.82 135.98
  Z"
/>
<path fill="#00adb5" d="
  M 324.85 152.28
  L 324.97 153.88
  Q 324.07 153.91 323.45 153.71
  Q 322.93 153.54 323.45 153.35
  Q 324.73 152.87 324.85 152.28
  Z"
/>
</svg>
